# Blender v2.76 (sub 0) OBJ File: 'helice.blend'
# www.blender.org
mtllib helice.mtl
o CUPIC_PROPELLER
v 0.012422 0.007172 -0.162483
v 0.014344 0.000000 -0.162483
v 0.000000 0.000000 -0.162483
v 0.024845 0.014344 -0.162483
v 0.028688 0.000000 -0.162483
v 0.024845 0.014344 -0.162483
v 0.024845 0.014344 -0.046540
v 0.028688 0.000000 -0.046540
v 0.028688 0.000000 -0.162483
v 0.024845 0.014344 -0.046540
v 0.012422 0.007172 -0.046540
v 0.014344 0.000000 -0.046540
v 0.028688 0.000000 -0.046540
v 0.000000 0.000000 -0.046540
v 0.007172 0.012422 -0.162483
v 0.014344 0.024845 -0.162483
v 0.014344 0.024845 -0.162483
v 0.014344 0.024845 -0.046540
v 0.014344 0.024845 -0.046540
v 0.007172 0.012422 -0.046540
v 0.000000 0.014344 -0.162483
v 0.000000 0.028688 -0.162483
v 0.000000 0.028688 -0.162483
v 0.000000 0.028688 -0.046540
v 0.000000 0.028688 -0.046540
v 0.000000 0.014344 -0.046540
v -0.007172 0.012422 -0.162483
v -0.014344 0.024845 -0.162483
v -0.014344 0.024845 -0.162483
v -0.014344 0.024845 -0.046540
v -0.014344 0.024845 -0.046540
v -0.007172 0.012422 -0.046540
v -0.012422 0.007172 -0.162483
v -0.024845 0.014344 -0.162483
v -0.024845 0.014344 -0.162483
v -0.024845 0.014344 -0.046540
v -0.024845 0.014344 -0.046540
v -0.012422 0.007172 -0.046540
v -0.014344 0.000000 -0.162483
v -0.028688 0.000000 -0.162483
v -0.028688 0.000000 -0.162483
v -0.028688 0.000000 -0.046540
v -0.028688 0.000000 -0.046540
v -0.014344 0.000000 -0.046540
v -0.012422 -0.007172 -0.162483
v -0.024845 -0.014344 -0.162483
v -0.024845 -0.014344 -0.162483
v -0.024845 -0.014344 -0.046540
v -0.024845 -0.014344 -0.046540
v -0.012422 -0.007172 -0.046540
v -0.007172 -0.012422 -0.162483
v -0.014344 -0.024845 -0.162483
v -0.014344 -0.024845 -0.162483
v -0.014344 -0.024845 -0.046540
v -0.014344 -0.024845 -0.046540
v -0.007172 -0.012422 -0.046540
v -0.000000 -0.014344 -0.162483
v -0.000000 -0.028688 -0.162483
v -0.000000 -0.028688 -0.162483
v -0.000000 -0.028688 -0.046540
v -0.000000 -0.028688 -0.046540
v -0.000000 -0.014344 -0.046540
v 0.007172 -0.012422 -0.162483
v 0.014344 -0.024845 -0.162483
v 0.014344 -0.024845 -0.162483
v 0.014344 -0.024845 -0.046540
v 0.014344 -0.024845 -0.046540
v 0.007172 -0.012422 -0.046540
v 0.012422 -0.007172 -0.162483
v 0.024845 -0.014344 -0.162483
v 0.024845 -0.014344 -0.162483
v 0.024845 -0.014344 -0.046540
v 0.024845 -0.014344 -0.046540
v 0.012422 -0.007172 -0.046540
v 0.020249 0.011691 -0.056240
v 0.023382 0.000000 -0.056240
v 0.000000 0.000000 -0.056240
v 0.040498 0.023382 -0.056240
v 0.046763 0.000000 -0.056240
v 0.044352 0.025606 -0.055048
v 0.051213 0.000000 -0.055048
v 0.047172 0.027235 -0.051791
v 0.054470 0.000000 -0.051791
v 0.048205 0.027831 -0.047341
v 0.055662 0.000000 -0.047341
v 0.048205 0.027831 0.050804
v 0.055662 -0.000000 0.050804
v 0.047172 0.027235 0.055253
v 0.054470 -0.000000 0.055253
v 0.044352 0.025606 0.058511
v 0.051213 -0.000000 0.058511
v 0.040498 0.023382 0.059703
v 0.046763 -0.000000 0.059703
v 0.020249 0.011691 0.059703
v 0.023382 -0.000000 0.059703
v 0.000000 -0.000000 0.059703
v 0.011691 0.020249 -0.056240
v 0.023382 0.040498 -0.056240
v 0.025606 0.044352 -0.055048
v 0.027235 0.047172 -0.051791
v 0.027831 0.048205 -0.047341
v 0.027831 0.048205 0.050804
v 0.027235 0.047172 0.055253
v 0.025606 0.044352 0.058511
v 0.023382 0.040498 0.059703
v 0.011691 0.020249 0.059703
v 0.000000 0.023382 -0.056240
v 0.000000 0.046763 -0.056240
v 0.000000 0.051213 -0.055048
v 0.000000 0.054470 -0.051791
v 0.000000 0.055662 -0.047341
v 0.000000 0.055662 0.050804
v 0.000000 0.054470 0.055253
v 0.000000 0.051213 0.058511
v 0.000000 0.046763 0.059703
v 0.000000 0.023382 0.059703
v -0.011691 0.020249 -0.056240
v -0.023382 0.040498 -0.056240
v -0.025606 0.044352 -0.055048
v -0.027235 0.047172 -0.051791
v -0.027831 0.048205 -0.047341
v -0.027831 0.048205 0.050804
v -0.027235 0.047172 0.055253
v -0.025606 0.044352 0.058511
v -0.023382 0.040498 0.059703
v -0.011691 0.020249 0.059703
v -0.020249 0.011691 -0.056240
v -0.040498 0.023382 -0.056240
v -0.044352 0.025606 -0.055048
v -0.047172 0.027235 -0.051791
v -0.048205 0.027831 -0.047341
v -0.048205 0.027831 0.050804
v -0.047172 0.027235 0.055253
v -0.044352 0.025606 0.058511
v -0.040498 0.023382 0.059703
v -0.020249 0.011691 0.059703
v -0.023382 0.000000 -0.056240
v -0.046763 0.000000 -0.056240
v -0.051213 0.000000 -0.055048
v -0.054470 0.000000 -0.051791
v -0.055662 0.000000 -0.047341
v -0.055662 -0.000000 0.050804
v -0.054470 -0.000000 0.055253
v -0.051213 -0.000000 0.058511
v -0.046763 -0.000000 0.059703
v -0.023382 -0.000000 0.059703
v -0.020249 -0.011691 -0.056240
v -0.040498 -0.023382 -0.056240
v -0.044352 -0.025606 -0.055048
v -0.047172 -0.027235 -0.051791
v -0.048205 -0.027831 -0.047341
v -0.048205 -0.027831 0.050804
v -0.047172 -0.027235 0.055253
v -0.044352 -0.025606 0.058511
v -0.040498 -0.023382 0.059703
v -0.020249 -0.011691 0.059703
v -0.011691 -0.020249 -0.056240
v -0.023382 -0.040498 -0.056240
v -0.025606 -0.044352 -0.055048
v -0.027235 -0.047172 -0.051791
v -0.027831 -0.048205 -0.047341
v -0.027831 -0.048205 0.050804
v -0.027235 -0.047172 0.055253
v -0.025606 -0.044352 0.058511
v -0.023382 -0.040498 0.059703
v -0.011691 -0.020249 0.059703
v -0.000000 -0.023382 -0.056240
v -0.000000 -0.046763 -0.056240
v -0.000000 -0.051213 -0.055048
v -0.000000 -0.054470 -0.051791
v -0.000000 -0.055662 -0.047341
v -0.000000 -0.055662 0.050804
v -0.000000 -0.054470 0.055253
v -0.000000 -0.051213 0.058511
v -0.000000 -0.046763 0.059703
v -0.000000 -0.023382 0.059703
v 0.011691 -0.020249 -0.056240
v 0.023382 -0.040498 -0.056240
v 0.025606 -0.044352 -0.055048
v 0.027235 -0.047172 -0.051791
v 0.027831 -0.048205 -0.047341
v 0.027831 -0.048205 0.050804
v 0.027235 -0.047172 0.055253
v 0.025606 -0.044352 0.058511
v 0.023382 -0.040498 0.059703
v 0.011691 -0.020249 0.059703
v 0.020249 -0.011691 -0.056240
v 0.040498 -0.023382 -0.056240
v 0.044352 -0.025606 -0.055048
v 0.047172 -0.027235 -0.051791
v 0.048205 -0.027831 -0.047341
v 0.048205 -0.027831 0.050804
v 0.047172 -0.027235 0.055253
v 0.044352 -0.025606 0.058511
v 0.040498 -0.023382 0.059703
v 0.020249 -0.011691 0.059703
v 0.051543 -0.072737 -0.049031
v 0.164029 0.883170 -0.049031
v 0.164029 0.883170 0.049031
v 0.051543 -0.072737 0.049031
v -0.051543 -0.072737 -0.049031
v -0.164029 0.883170 -0.049031
v -0.051543 -0.072737 0.049031
v -0.164029 0.883170 0.049031
v -0.088763 -0.008269 -0.049031
v 0.682833 -0.583638 -0.049031
v 0.682833 -0.583638 0.049031
v -0.088763 -0.008269 0.049031
v -0.037220 0.081006 -0.049031
v 0.846862 -0.299531 -0.049031
v -0.037220 0.081006 0.049031
v 0.846862 -0.299531 0.049031
v 0.037220 0.081006 -0.049031
v -0.846862 -0.299531 -0.049031
v -0.846862 -0.299531 0.049031
v 0.037220 0.081006 0.049031
v 0.088763 -0.008269 -0.049031
v -0.682833 -0.583638 -0.049031
v 0.088763 -0.008269 0.049031
v -0.682833 -0.583638 0.049031
vt 0.373840 0.292960
vt 0.374910 0.296600
vt 0.366890 0.296600
vt 0.380790 0.289320
vt 0.382940 0.296600
vt 0.441140 0.433710
vt 0.441140 0.492550
vt 0.433110 0.492550
vt 0.433110 0.433710
vt 0.429330 0.303880
vt 0.422380 0.300240
vt 0.423460 0.296600
vt 0.431480 0.296600
vt 0.415430 0.296600
vt 0.370900 0.290290
vt 0.374910 0.283990
vt 0.447010 0.433710
vt 0.447010 0.492550
vt 0.423460 0.309210
vt 0.419440 0.302900
vt 0.366890 0.289320
vt 0.366890 0.282040
vt 0.449160 0.433710
vt 0.449160 0.492550
vt 0.415430 0.311160
vt 0.415430 0.303880
vt 0.362880 0.290290
vt 0.358860 0.283990
vt 0.306590 0.252320
vt 0.306590 0.311160
vt 0.304440 0.311160
vt 0.304440 0.252320
vt 0.407410 0.309210
vt 0.411420 0.302900
vt 0.359940 0.292960
vt 0.352990 0.289320
vt 0.312470 0.252320
vt 0.312470 0.311160
vt 0.401530 0.303880
vt 0.408480 0.300240
vt 0.358860 0.296600
vt 0.350840 0.296600
vt 0.320500 0.252320
vt 0.320500 0.311160
vt 0.399380 0.296600
vt 0.407410 0.296600
vt 0.359940 0.300240
vt 0.352990 0.303880
vt 0.328520 0.252320
vt 0.328520 0.311160
vt 0.401530 0.289320
vt 0.408480 0.292960
vt 0.362880 0.302900
vt 0.358860 0.309210
vt 0.334400 0.252320
vt 0.334400 0.311160
vt 0.407410 0.283990
vt 0.411420 0.290290
vt 0.366890 0.303880
vt 0.366890 0.311160
vt 0.433110 0.359960
vt 0.433110 0.418800
vt 0.425090 0.418800
vt 0.425090 0.359960
vt 0.415430 0.282040
vt 0.415430 0.289320
vt 0.370900 0.302900
vt 0.374910 0.309210
vt 0.441140 0.359960
vt 0.441140 0.418800
vt 0.423460 0.283990
vt 0.419440 0.290290
vt 0.373840 0.300240
vt 0.380790 0.303880
vt 0.447010 0.359960
vt 0.447010 0.418800
vt 0.429330 0.289320
vt 0.422380 0.292960
vt 0.425090 0.492550
vt 0.425090 0.433710
vt 0.721340 0.458970
vt 0.723090 0.464900
vt 0.710010 0.464900
vt 0.732670 0.453040
vt 0.736170 0.464900
vt 0.734820 0.451910
vt 0.738660 0.464900
vt 0.736400 0.451080
vt 0.740480 0.464900
vt 0.239030 0.256840
vt 0.239360 0.259090
vt 0.223790 0.259090
vt 0.223790 0.256840
vt 0.239360 0.308900
vt 0.223790 0.308900
vt 0.239030 0.311160
vt 0.223790 0.311160
vt 0.736400 0.411840
vt 0.734820 0.411010
vt 0.738660 0.398020
vt 0.740480 0.398020
vt 0.732670 0.409880
vt 0.736170 0.398020
vt 0.721340 0.403950
vt 0.723090 0.398020
vt 0.710010 0.398020
vt 0.716550 0.454630
vt 0.723090 0.444350
vt 0.724330 0.442400
vt 0.725240 0.440970
vt 0.250190 0.256840
vt 0.250760 0.259090
vt 0.250760 0.308900
vt 0.690930 0.351560
vt 0.691260 0.353810
vt 0.680110 0.353810
vt 0.679530 0.351560
vt 0.725240 0.421960
vt 0.724330 0.420520
vt 0.723090 0.418570
vt 0.716550 0.408290
vt 0.710010 0.453040
vt 0.710010 0.441170
vt 0.710010 0.438920
vt 0.706500 0.297840
vt 0.706500 0.299490
vt 0.691260 0.299490
vt 0.692170 0.297840
vt 0.706500 0.301750
vt 0.690930 0.301750
vt 0.706500 0.351560
vt 0.706500 0.353810
vt 0.706500 0.355470
vt 0.692170 0.355470
vt 0.710010 0.424010
vt 0.710010 0.421750
vt 0.710010 0.409880
vt 0.703460 0.454630
vt 0.696920 0.444350
vt 0.695680 0.442400
vt 0.720830 0.297840
vt 0.721740 0.299490
vt 0.722070 0.301750
vt 0.722070 0.351560
vt 0.721740 0.353810
vt 0.720830 0.355470
vt 0.695680 0.420520
vt 0.696920 0.418570
vt 0.703460 0.408290
vt 0.698680 0.458970
vt 0.687350 0.453040
vt 0.685190 0.451910
vt 0.683610 0.451080
vt 0.694770 0.440970
vt 0.761650 0.301140
vt 0.761310 0.303400
vt 0.749910 0.303400
vt 0.750490 0.301140
vt 0.761310 0.353210
vt 0.749910 0.353210
vt 0.733470 0.351560
vt 0.732890 0.353810
vt 0.683610 0.411840
vt 0.685190 0.411010
vt 0.694770 0.421960
vt 0.687350 0.409880
vt 0.698680 0.403950
vt 0.696920 0.464900
vt 0.683840 0.464900
vt 0.681350 0.464900
vt 0.679530 0.464900
vt 0.776880 0.301140
vt 0.776880 0.303400
vt 0.776880 0.353210
vt 0.776880 0.355470
vt 0.761650 0.355470
vt 0.679530 0.398020
vt 0.681350 0.398020
vt 0.683840 0.398020
vt 0.696920 0.398020
vt 0.698680 0.470840
vt 0.687350 0.476770
vt 0.685190 0.477900
vt 0.683610 0.478720
vt 0.792120 0.301140
vt 0.792460 0.303400
vt 0.792460 0.353210
vt 0.792120 0.355470
vt 0.683610 0.384200
vt 0.685190 0.385020
vt 0.687350 0.386150
vt 0.698680 0.392080
vt 0.703460 0.475180
vt 0.696920 0.485460
vt 0.695680 0.487410
vt 0.694770 0.488840
vt 0.803280 0.301140
vt 0.803860 0.303400
vt 0.803860 0.353210
vt 0.803280 0.355470
vt 0.694770 0.374080
vt 0.695680 0.375510
vt 0.696920 0.377470
vt 0.703460 0.387740
vt 0.710010 0.476770
vt 0.710010 0.488630
vt 0.710010 0.490890
vt 0.710010 0.492550
vt 0.772500 0.436570
vt 0.772500 0.438830
vt 0.756920 0.438830
vt 0.757260 0.436570
vt 0.772500 0.488630
vt 0.756920 0.488630
vt 0.772500 0.490890
vt 0.757260 0.490890
vt 0.710010 0.370380
vt 0.710010 0.372030
vt 0.710010 0.374290
vt 0.710010 0.386150
vt 0.716550 0.475180
vt 0.723090 0.485460
vt 0.724330 0.487410
vt 0.786820 0.434920
vt 0.787730 0.436570
vt 0.772500 0.434920
vt 0.788070 0.438830
vt 0.788070 0.488630
vt 0.787730 0.490890
vt 0.786820 0.492550
vt 0.772500 0.492550
vt 0.724330 0.375510
vt 0.723090 0.377470
vt 0.716550 0.387740
vt 0.721340 0.470840
vt 0.732670 0.476770
vt 0.734820 0.477900
vt 0.736400 0.478720
vt 0.725240 0.488840
vt 0.798890 0.436570
vt 0.799470 0.438830
vt 0.799470 0.488630
vt 0.798890 0.490890
vt 0.736400 0.384200
vt 0.734820 0.385020
vt 0.725240 0.374080
vt 0.732670 0.386150
vt 0.721340 0.392080
vt 0.208220 0.259090
vt 0.208550 0.256840
vt 0.208220 0.308900
vt 0.208550 0.311160
vt 0.263090 0.435460
vt 0.263090 0.492550
vt 0.208220 0.492550
vt 0.208220 0.435460
vt 0.128840 0.507450
vt 0.191780 0.992550
vt 0.008220 0.992550
vt 0.071160 0.507450
vt 0.208220 0.383150
vt 0.208220 0.326070
vt 0.263090 0.326070
vt 0.263090 0.383150
vt 0.328840 0.507450
vt 0.391780 0.992550
vt 0.208220 0.992550
vt 0.271160 0.507450
vt 0.591780 0.326070
vt 0.591780 0.492550
vt 0.536910 0.492550
vt 0.536910 0.326070
vt 0.334400 0.435460
vt 0.334400 0.492550
vt 0.279530 0.492550
vt 0.279530 0.435460
vt 0.528840 0.507450
vt 0.591780 0.992550
vt 0.408220 0.992550
vt 0.471160 0.507450
vt 0.279530 0.383150
vt 0.279530 0.326070
vt 0.334400 0.326070
vt 0.334400 0.383150
vt 0.728840 0.507450
vt 0.791780 0.992550
vt 0.608220 0.992550
vt 0.671160 0.507450
vt 0.520470 0.326070
vt 0.520470 0.492550
vt 0.465600 0.492550
vt 0.465600 0.326070
vt 0.405710 0.435460
vt 0.405710 0.492550
vt 0.350840 0.492550
vt 0.350840 0.435460
vt 0.928840 0.507450
vt 0.991780 0.992550
vt 0.808220 0.992550
vt 0.871160 0.507450
vt 0.350840 0.383150
vt 0.350840 0.326070
vt 0.405710 0.326070
vt 0.405710 0.383150
vt 0.128840 0.007450
vt 0.191780 0.492550
vt 0.008220 0.492550
vt 0.071160 0.007450
vt 0.663090 0.326070
vt 0.663090 0.492550
vt 0.608220 0.492550
vt 0.608220 0.326070
vn 0.000000 0.000000 -1.000000
vn 0.965900 0.258800 0.000000
vn -0.000000 0.000000 1.000000
vn 0.707100 0.707100 0.000000
vn 0.258800 0.965900 0.000000
vn -0.258800 0.965900 0.000000
vn -0.707100 0.707100 0.000000
vn -0.965900 0.258800 0.000000
vn -0.965900 -0.258800 -0.000000
vn -0.707100 -0.707100 -0.000000
vn -0.258800 -0.965900 -0.000000
vn 0.258800 -0.965900 -0.000000
vn 0.707100 -0.707100 -0.000000
vn 0.965900 -0.258800 -0.000000
vn 0.258200 0.069200 -0.963600
vn 0.694800 0.186200 -0.694700
vn 0.935100 0.250600 -0.250600
vn 0.935100 0.250600 0.250600
vn 0.694800 0.186200 0.694700
vn 0.258200 0.069200 0.963600
vn 0.189000 0.189000 -0.963600
vn 0.508600 0.508600 -0.694700
vn 0.684600 0.684600 -0.250600
vn 0.684600 0.684600 0.250600
vn 0.508600 0.508600 0.694700
vn 0.189000 0.189000 0.963600
vn 0.069200 0.258200 -0.963600
vn 0.186200 0.694800 -0.694700
vn 0.250600 0.935100 -0.250600
vn 0.250600 0.935100 0.250600
vn 0.186200 0.694800 0.694700
vn 0.069200 0.258200 0.963600
vn -0.069200 0.258200 -0.963600
vn -0.186200 0.694800 -0.694700
vn -0.250600 0.935100 -0.250600
vn -0.250600 0.935100 0.250600
vn -0.186200 0.694800 0.694700
vn -0.069200 0.258200 0.963600
vn -0.189000 0.189000 -0.963600
vn -0.508600 0.508600 -0.694700
vn -0.684600 0.684600 -0.250600
vn -0.684600 0.684600 0.250600
vn -0.508600 0.508600 0.694700
vn -0.189000 0.189000 0.963600
vn -0.258200 0.069200 -0.963600
vn -0.694800 0.186200 -0.694700
vn -0.935100 0.250600 -0.250600
vn -0.935100 0.250600 0.250600
vn -0.694800 0.186200 0.694700
vn -0.258200 0.069200 0.963600
vn -0.258200 -0.069200 -0.963600
vn -0.694800 -0.186200 -0.694700
vn -0.935100 -0.250600 -0.250600
vn -0.935100 -0.250600 0.250600
vn -0.694800 -0.186200 0.694700
vn -0.258200 -0.069200 0.963600
vn -0.189000 -0.189000 -0.963600
vn -0.508600 -0.508600 -0.694700
vn -0.684600 -0.684600 -0.250600
vn -0.684600 -0.684600 0.250600
vn -0.508600 -0.508600 0.694700
vn -0.189000 -0.189000 0.963600
vn -0.069200 -0.258200 -0.963600
vn -0.186200 -0.694800 -0.694700
vn -0.250600 -0.935100 -0.250600
vn -0.250600 -0.935100 0.250600
vn -0.186200 -0.694800 0.694700
vn -0.069200 -0.258200 0.963600
vn 0.069200 -0.258200 -0.963600
vn 0.186200 -0.694800 -0.694700
vn 0.250600 -0.935100 -0.250600
vn 0.250600 -0.935100 0.250600
vn 0.186200 -0.694800 0.694700
vn 0.069200 -0.258200 0.963600
vn 0.189000 -0.189000 -0.963600
vn 0.508600 -0.508600 -0.694700
vn 0.684600 -0.684600 -0.250600
vn 0.684600 -0.684600 0.250600
vn 0.508600 -0.508600 0.694700
vn 0.189000 -0.189000 0.963600
vn 0.258200 -0.069200 -0.963600
vn 0.694800 -0.186200 -0.694700
vn 0.935100 -0.250600 -0.250600
vn 0.935100 -0.250600 0.250600
vn 0.694800 -0.186200 0.694700
vn 0.258200 -0.069200 0.963600
vn 0.993100 -0.116900 0.000000
vn -0.993100 -0.116900 0.000000
vn 0.000000 1.000000 0.000000
vn 0.000000 -1.000000 0.000000
vn -0.597800 -0.801700 0.000000
vn 0.395400 0.918500 0.000000
vn 0.866000 -0.500000 0.000000
vn -0.866000 0.500000 0.000000
vn -0.395400 0.918500 0.000000
vn 0.597800 -0.801700 0.000000
vn -0.866000 -0.500000 0.000000
vn 0.866000 0.500000 0.000000
usemtl Cube.1_2
s off
f 1/1/1 2/2/1 3/3/1
f 1/1/1 4/4/1 5/5/1 2/2/1
f 6/6/2 7/7/2 8/8/2 9/9/2
f 10/10/3 11/11/3 12/12/3 13/13/3
f 11/11/3 14/14/3 12/12/3
f 15/15/1 1/1/1 3/3/1
f 15/15/1 16/16/1 4/4/1 1/1/1
f 17/17/4 18/18/4 7/7/4 6/6/4
f 19/19/3 20/20/3 11/11/3 10/10/3
f 20/20/3 14/14/3 11/11/3
f 21/21/1 15/15/1 3/3/1
f 21/21/1 22/22/1 16/16/1 15/15/1
f 23/23/5 24/24/5 18/18/5 17/17/5
f 25/25/3 26/26/3 20/20/3 19/19/3
f 26/26/3 14/14/3 20/20/3
f 27/27/1 21/21/1 3/3/1
f 27/27/1 28/28/1 22/22/1 21/21/1
f 29/29/6 30/30/6 24/31/6 23/32/6
f 31/33/3 32/34/3 26/26/3 25/25/3
f 32/34/3 14/14/3 26/26/3
f 33/35/1 27/27/1 3/3/1
f 33/35/1 34/36/1 28/28/1 27/27/1
f 35/37/7 36/38/7 30/30/7 29/29/7
f 37/39/3 38/40/3 32/34/3 31/33/3
f 38/40/3 14/14/3 32/34/3
f 39/41/1 33/35/1 3/3/1
f 39/41/1 40/42/1 34/36/1 33/35/1
f 41/43/8 42/44/8 36/38/8 35/37/8
f 43/45/3 44/46/3 38/40/3 37/39/3
f 44/46/3 14/14/3 38/40/3
f 45/47/1 39/41/1 3/3/1
f 45/47/1 46/48/1 40/42/1 39/41/1
f 47/49/9 48/50/9 42/44/9 41/43/9
f 49/51/3 50/52/3 44/46/3 43/45/3
f 50/52/3 14/14/3 44/46/3
f 51/53/1 45/47/1 3/3/1
f 51/53/1 52/54/1 46/48/1 45/47/1
f 53/55/10 54/56/10 48/50/10 47/49/10
f 55/57/3 56/58/3 50/52/3 49/51/3
f 56/58/3 14/14/3 50/52/3
f 57/59/1 51/53/1 3/3/1
f 57/59/1 58/60/1 52/54/1 51/53/1
f 59/61/11 60/62/11 54/63/11 53/64/11
f 61/65/3 62/66/3 56/58/3 55/57/3
f 62/66/3 14/14/3 56/58/3
f 63/67/1 57/59/1 3/3/1
f 63/67/1 64/68/1 58/60/1 57/59/1
f 65/69/12 66/70/12 60/62/12 59/61/12
f 67/71/3 68/72/3 62/66/3 61/65/3
f 68/72/3 14/14/3 62/66/3
f 69/73/1 63/67/1 3/3/1
f 69/73/1 70/74/1 64/68/1 63/67/1
f 71/75/13 72/76/13 66/70/13 65/69/13
f 73/77/3 74/78/3 68/72/3 67/71/3
f 74/78/3 14/14/3 68/72/3
f 2/2/1 69/73/1 3/3/1
f 2/2/1 5/5/1 70/74/1 69/73/1
f 9/9/14 8/8/14 72/79/14 71/80/14
f 13/13/3 12/12/3 74/78/3 73/77/3
f 12/12/3 14/14/3 74/78/3
f 75/81/1 76/82/1 77/83/1
f 75/81/1 78/84/1 79/85/1 76/82/1
f 78/84/15 80/86/15 81/87/15 79/85/15
f 80/86/16 82/88/16 83/89/16 81/87/16
f 82/90/17 84/91/17 85/92/17 83/93/17
f 84/91/2 86/94/2 87/95/2 85/92/2
f 86/94/18 88/96/18 89/97/18 87/95/18
f 88/98/19 90/99/19 91/100/19 89/101/19
f 90/99/20 92/102/20 93/103/20 91/100/20
f 92/102/3 94/104/3 95/105/3 93/103/3
f 94/104/3 96/106/3 95/105/3
f 97/107/1 75/81/1 77/83/1
f 97/107/1 98/108/1 78/84/1 75/81/1
f 98/108/21 99/109/21 80/86/21 78/84/21
f 99/109/22 100/110/22 82/88/22 80/86/22
f 100/111/23 101/112/23 84/91/23 82/90/23
f 101/112/4 102/113/4 86/94/4 84/91/4
f 102/114/24 103/115/24 88/116/24 86/117/24
f 103/118/25 104/119/25 90/99/25 88/98/25
f 104/119/26 105/120/26 92/102/26 90/99/26
f 105/120/3 106/121/3 94/104/3 92/102/3
f 106/121/3 96/106/3 94/104/3
f 107/122/1 97/107/1 77/83/1
f 107/122/1 108/123/1 98/108/1 97/107/1
f 108/123/27 109/124/27 99/109/27 98/108/27
f 109/125/28 110/126/28 100/127/28 99/128/28
f 110/126/29 111/129/29 101/130/29 100/127/29
f 111/129/5 112/131/5 102/114/5 101/130/5
f 112/131/30 113/132/30 103/115/30 102/114/30
f 113/132/31 114/133/31 104/134/31 103/115/31
f 114/135/32 115/136/32 105/120/32 104/119/32
f 115/136/3 116/137/3 106/121/3 105/120/3
f 116/137/3 96/106/3 106/121/3
f 117/138/1 107/122/1 77/83/1
f 117/138/1 118/139/1 108/123/1 107/122/1
f 118/139/33 119/140/33 109/124/33 108/123/33
f 119/141/34 120/142/34 110/126/34 109/125/34
f 120/142/35 121/143/35 111/129/35 110/126/35
f 121/143/6 122/144/6 112/131/6 111/129/6
f 122/144/36 123/145/36 113/132/36 112/131/36
f 123/145/37 124/146/37 114/133/37 113/132/37
f 124/147/38 125/148/38 115/136/38 114/135/38
f 125/148/3 126/149/3 116/137/3 115/136/3
f 126/149/3 96/106/3 116/137/3
f 127/150/1 117/138/1 77/83/1
f 127/150/1 128/151/1 118/139/1 117/138/1
f 128/151/39 129/152/39 119/140/39 118/139/39
f 129/152/40 130/153/40 120/154/40 119/140/40
f 130/155/41 131/156/41 121/157/41 120/158/41
f 131/156/7 132/159/7 122/160/7 121/157/7
f 132/161/42 133/162/42 123/145/42 122/144/42
f 133/163/43 134/164/43 124/147/43 123/165/43
f 134/164/44 135/166/44 125/148/44 124/147/44
f 135/166/3 136/167/3 126/149/3 125/148/3
f 136/167/3 96/106/3 126/149/3
f 137/168/1 127/150/1 77/83/1
f 137/168/1 138/169/1 128/151/1 127/150/1
f 138/169/45 139/170/45 129/152/45 128/151/45
f 139/170/46 140/171/46 130/153/46 129/152/46
f 140/172/47 141/173/47 131/156/47 130/155/47
f 141/173/8 142/174/8 132/159/8 131/156/8
f 142/174/48 143/175/48 133/176/48 132/159/48
f 143/177/49 144/178/49 134/164/49 133/163/49
f 144/178/50 145/179/50 135/166/50 134/164/50
f 145/179/3 146/180/3 136/167/3 135/166/3
f 146/180/3 96/106/3 136/167/3
f 147/181/1 137/168/1 77/83/1
f 147/181/1 148/182/1 138/169/1 137/168/1
f 148/182/51 149/183/51 139/170/51 138/169/51
f 149/183/52 150/184/52 140/171/52 139/170/52
f 150/185/53 151/186/53 141/173/53 140/172/53
f 151/186/9 152/187/9 142/174/9 141/173/9
f 152/187/54 153/188/54 143/175/54 142/174/54
f 153/189/55 154/190/55 144/178/55 143/177/55
f 154/190/56 155/191/56 145/179/56 144/178/56
f 155/191/3 156/192/3 146/180/3 145/179/3
f 156/192/3 96/106/3 146/180/3
f 157/193/1 147/181/1 77/83/1
f 157/193/1 158/194/1 148/182/1 147/181/1
f 158/194/57 159/195/57 149/183/57 148/182/57
f 159/195/58 160/196/58 150/184/58 149/183/58
f 160/197/59 161/198/59 151/186/59 150/185/59
f 161/198/10 162/199/10 152/187/10 151/186/10
f 162/199/60 163/200/60 153/188/60 152/187/60
f 163/201/61 164/202/61 154/190/61 153/189/61
f 164/202/62 165/203/62 155/191/62 154/190/62
f 165/203/3 166/204/3 156/192/3 155/191/3
f 166/204/3 96/106/3 156/192/3
f 167/205/1 157/193/1 77/83/1
f 167/205/1 168/206/1 158/194/1 157/193/1
f 168/206/63 169/207/63 159/195/63 158/194/63
f 169/207/64 170/208/64 160/196/64 159/195/64
f 170/209/65 171/210/65 161/211/65 160/212/65
f 171/210/11 172/213/11 162/214/11 161/211/11
f 172/213/66 173/215/66 163/216/66 162/214/66
f 173/217/67 174/218/67 164/202/67 163/201/67
f 174/218/68 175/219/68 165/203/68 164/202/68
f 175/219/3 176/220/3 166/204/3 165/203/3
f 176/220/3 96/106/3 166/204/3
f 177/221/1 167/205/1 77/83/1
f 177/221/1 178/222/1 168/206/1 167/205/1
f 178/222/69 179/223/69 169/207/69 168/206/69
f 179/224/70 180/225/70 170/209/70 169/226/70
f 180/225/71 181/227/71 171/210/71 170/209/71
f 181/227/12 182/228/12 172/213/12 171/210/12
f 182/228/72 183/229/72 173/215/72 172/213/72
f 183/229/73 184/230/73 174/231/73 173/215/73
f 184/232/74 185/233/74 175/219/74 174/218/74
f 185/233/3 186/234/3 176/220/3 175/219/3
f 186/234/3 96/106/3 176/220/3
f 187/235/1 177/221/1 77/83/1
f 187/235/1 188/236/1 178/222/1 177/221/1
f 188/236/75 189/237/75 179/223/75 178/222/75
f 189/237/76 190/238/76 180/239/76 179/223/76
f 190/240/77 191/241/77 181/227/77 180/225/77
f 191/241/13 192/242/13 182/228/13 181/227/13
f 192/242/78 193/243/78 183/229/78 182/228/78
f 193/244/79 194/245/79 184/232/79 183/246/79
f 194/245/80 195/247/80 185/233/80 184/232/80
f 195/247/3 196/248/3 186/234/3 185/233/3
f 196/248/3 96/106/3 186/234/3
f 76/82/1 187/235/1 77/83/1
f 76/82/1 79/85/1 188/236/1 187/235/1
f 79/85/81 81/87/81 189/237/81 188/236/81
f 81/87/82 83/89/82 190/238/82 189/237/82
f 83/93/83 85/92/83 191/249/83 190/250/83
f 85/92/14 87/95/14 192/251/14 191/249/14
f 87/95/84 89/97/84 193/252/84 192/251/84
f 89/101/85 91/100/85 194/245/85 193/244/85
f 91/100/86 93/103/86 195/247/86 194/245/86
f 93/103/3 95/105/3 196/248/3 195/247/3
f 95/105/3 96/106/3 196/248/3
f 197/253/87 198/254/87 199/255/87 200/256/87
f 201/257/1 202/258/1 198/259/1 197/260/1
f 203/261/88 204/262/88 202/263/88 201/264/88
f 200/265/3 199/266/3 204/267/3 203/268/3
f 198/269/89 202/270/89 204/271/89 199/272/89
f 201/264/90 197/253/90 200/256/90 203/261/90
f 205/273/91 206/274/91 207/275/91 208/276/91
f 209/277/1 210/278/1 206/279/1 205/280/1
f 211/281/92 212/282/92 210/283/92 209/284/92
f 208/285/3 207/286/3 212/287/3 211/288/3
f 206/289/93 210/290/93 212/291/93 207/292/93
f 209/284/94 205/273/94 208/276/94 211/281/94
f 213/293/95 214/294/95 215/295/95 216/296/95
f 217/297/1 218/298/1 214/299/1 213/300/1
f 219/301/96 220/302/96 218/303/96 217/304/96
f 216/305/3 215/306/3 220/307/3 219/308/3
f 214/309/97 218/310/97 220/311/97 215/312/97
f 217/304/98 213/293/98 216/296/98 219/301/98
